<svg xmlns="http://www.w3.org/2000/svg" width="116" height="89" viewBox="0 0 116 89"><g><g><path fill="#ffde15" d="M95.113.79c.606.002 1.104.197 1.499.592.394.394.59.892.59 1.498v30.153l13.076-.001c1.15 0 2.12.395 2.907 1.182.787.787 1.18 1.756 1.18 2.906 0 1.15-.393 2.119-1.18 2.906L92.843 60.37c-.787.787-1.756 1.18-2.906 1.182-1.15 0-2.12-.394-2.906-1.181L66.689 40.026c-.787-.787-1.181-1.755-1.182-2.907.001-1.149.394-2.118 1.182-2.906.788-.788 1.756-1.18 2.905-1.181h13.078V2.88c0-.606.197-1.105.59-1.499.394-.393.893-.59 1.499-.59zM23.157 60.37L2.815 40.026c-.787-.788-1.18-1.756-1.18-2.906 0-1.15.392-2.12 1.179-2.907.787-.787 1.757-1.18 2.907-1.181h13.075l.001-30.153c0-.605.197-1.104.59-1.498.394-.394.893-.59 1.498-.59h10.353c.605 0 1.105.196 1.499.59.393.394.59.893.59 1.499v30.152l13.076.001c1.15 0 2.118.394 2.905 1.181.787.787 1.181 1.756 1.181 2.906 0 1.151-.393 2.119-1.18 2.906L28.967 60.37c-.787.788-1.756 1.182-2.906 1.181-1.151.001-2.117-.393-2.904-1.181zm91.923 25.75c0 .604-.197 1.104-.59 1.498-.394.393-.893.59-1.499.59H3.008c-.605 0-1.104-.197-1.498-.59-.394-.395-.59-.893-.59-1.498V75.765c0-.605.197-1.105.59-1.498.394-.394.893-.59 1.499-.591h109.983c.605 0 1.103.197 1.497.59.394.395.59.893.59 1.499z"/></g></g></svg>