<svg xmlns="http://www.w3.org/2000/svg" width="45" height="124" viewBox="0 0 45 124"><g><g><path fill="#ffde15" d="M26.924 68.544c.551.001 1.005.18 1.364.538.358.36.536.814.536 1.365l.001 27.468 11.897-.002c1.047.002 1.928.36 2.644 1.077.717.717 1.074 1.6 1.075 2.647-.001 1.048-.358 1.93-1.075 2.647L24.86 122.816c-.716.717-1.598 1.076-2.644 1.076-1.047 0-1.928-.358-2.644-1.075L1.063 104.285c-.716-.717-1.074-1.6-1.075-2.648 0-1.047.359-1.93 1.075-2.648.717-.717 1.598-1.074 2.644-1.076l11.898.001V70.447c0-.551.179-1.006.537-1.365.358-.358.813-.537 1.363-.538zM24.857 1.037l18.508 18.532c.716.717 1.074 1.6 1.074 2.647 0 1.048-.357 1.93-1.073 2.647-.716.717-1.598 1.076-2.645 1.076H28.825l-.001 27.468c0 .55-.179 1.005-.537 1.363-.359.36-.812.538-1.363.538l-9.42.001c-.55 0-1.005-.18-1.363-.538-.358-.358-.536-.814-.537-1.365V25.939H3.707c-1.045 0-1.927-.36-2.643-1.077-.716-.717-1.074-1.599-1.075-2.646.001-1.05.359-1.93 1.075-2.648L19.57 1.036C20.287.32 21.17-.04 22.215-.039c1.048-.001 1.926.358 2.642 1.076z"/></g></g></svg>