<svg xmlns="http://www.w3.org/2000/svg" width="91" height="99" viewBox="0 0 91 99"><g><g><path fill="#ffde15" d="M89.01 97.054a4.894 4.894 0 0 1-3.756 1.756H5.26a4.894 4.894 0 0 1-3.755-1.756A4.907 4.907 0 0 1 .44 93.043l10.39-58.038a4.898 4.898 0 0 1 4.819-4.038h17.278a17.56 17.56 0 0 1-5.252-12.536c0-9.707 7.887-17.604 17.582-17.604s17.582 7.897 17.582 17.604a17.56 17.56 0 0 1-5.253 12.536h17.279c2.37 0 4.401 1.701 4.82 4.038l10.389 58.038a4.907 4.907 0 0 1-1.065 4.01zM37.466 18.43c0 4.301 3.495 7.8 7.79 7.8s7.79-3.499 7.79-7.8c0-4.3-3.495-7.799-7.79-7.799s-7.79 3.499-7.79 7.8zM43.918 75.2l-7.4-11.394 6.018-6.232a1.459 1.459 0 1 0-1.049-2.475h-1.982c-.408 0-.798.17-1.074.472l-8.676 9.456v-7.672a2.255 2.255 0 0 0-2.254-2.256 2.255 2.255 0 0 0-2.254 2.256V75.2a2.255 2.255 0 0 0 2.254 2.257 2.256 2.256 0 0 0 2.254-2.257v-4.5l3.656-3.736 5.716 9.77c.262.448.741.723 1.259.723h2.31a1.459 1.459 0 0 0 1.222-2.257zm22.27-1.485V66.93a1.46 1.46 0 0 0-1.459-1.46h-6.378c-1.038 0-1.88.843-1.88 1.883s.841 1.883 1.88 1.883h3.282v2.837c-.68.529-1.495.979-2.444 1.35a7.756 7.756 0 0 1-2.84.557c-1.91 0-3.453-.664-4.631-1.99-1.178-1.327-1.767-3.317-1.767-5.971 0-2.46.581-4.316 1.744-5.567 1.162-1.25 2.729-1.876 4.699-1.876 1.3 0 2.383.318 3.252.953.482.354.88.778 1.19 1.274a2.23 2.23 0 0 0 2.298 1.006l.005-.001a2.305 2.305 0 0 0 1.464-3.58 7.614 7.614 0 0 0-1.713-1.764c-1.559-1.164-3.724-1.746-6.496-1.746-2.133 0-3.915.371-5.346 1.113-1.88.967-3.306 2.354-4.28 4.164-.976 1.81-1.463 3.879-1.463 6.207 0 2.146.437 4.13 1.31 5.956.873 1.825 2.179 3.228 3.914 4.209 1.738.981 3.773 1.471 6.109 1.471 1.837 0 3.653-.348 5.445-1.044 1.471-.572 2.656-1.217 3.556-1.936.346-.276.549-.698.549-1.142z"/></g></g></svg>